<svg width="20" height="16" viewBox="0 0 20 16" fill="none" xmlns="http://www.w3.org/2000/svg">
<path d="M20 12.75C20 13.6477 19.6828 14.4137 19.0483 15.0482C18.4138 15.6827 17.6477 16 16.75 16H3.25C2.35233 16 1.58625 15.6827 0.95175 15.0482C0.31725 14.4137 0 13.6477 0 12.75L0 1.5C0 1.0875 0.146833 0.734333 0.4405 0.440499C0.734333 0.146833 1.0875 0 1.5 0H14.375C14.5273 0 14.6654 0.0416667 14.7893 0.125C14.9131 0.208333 15.0083 0.324999 15.075 0.474999C15.2083 0.791666 15.4231 1.04167 15.7193 1.225C16.0153 1.40833 16.3569 1.5 16.7443 1.5C17.1314 1.5 17.4716 1.40892 17.7647 1.22675C18.0579 1.04442 18.2697 0.793833 18.4 0.474999C18.4667 0.324999 18.575 0.208333 18.725 0.125C18.875 0.0416667 19.05 0 19.25 0C19.4573 0 19.6342 0.0718332 19.7805 0.2155C19.9268 0.359333 20 0.5375 20 0.75V12.75ZM13.5 11.2455C13.5 11.0318 13.4281 10.8542 13.2843 10.7125C13.1406 10.5708 12.9625 10.5 12.75 10.5H2.25C2.0375 10.5 1.85933 10.5723 1.7155 10.717C1.57183 10.8615 1.5 11.0407 1.5 11.2545C1.5 11.4682 1.57183 11.6458 1.7155 11.7875C1.85933 11.9292 2.0375 12 2.25 12H12.75C12.9625 12 13.1406 11.9277 13.2843 11.783C13.4281 11.6385 13.5 11.4593 13.5 11.2455ZM18.5 12.7615V2.525C18.25 2.675 17.975 2.79167 17.675 2.875C17.375 2.95833 17.0667 3 16.75 3C16.4167 3 16.1042 2.95833 15.8125 2.875C15.5208 2.79167 15.25 2.66667 15 2.5V12.7598C15 13.2366 15.1702 13.6458 15.5105 13.9875C15.8507 14.3292 16.2638 14.5 16.75 14.5C17.2333 14.5 17.6458 14.3292 17.9875 13.9875C18.3292 13.6458 18.5 13.2372 18.5 12.7615Z" fill="#1C1B1F"/>
</svg>
